<svg width="1920" height="1010" xmlns="http://www.w3.org/2000/svg"><g><path d="M-36,-92L-123,107L32,120Z" fill="#f5fdf3" stroke="#f5fdf3" fill-opacity="1" stroke-opacity="1"/><path d="M-36,-92L32,120L79,-76Z" fill="#f5fbf3" stroke="#f5fbf3" fill-opacity="1" stroke-opacity="1"/><path d="M-36,-92L79,-76L252,-133Z" fill="#f1faef" stroke="#f1faef" fill-opacity="1" stroke-opacity="1"/><path d="M79,-76L32,120L230,133Z" fill="#ecf9e9" stroke="#ecf9e9" fill-opacity="1" stroke-opacity="1"/><path d="M79,-76L230,133L252,-133Z" fill="#ecf8ea" stroke="#ecf8ea" fill-opacity="1" stroke-opacity="1"/><path d="M252,-133L230,133L435,29Z" fill="#e6f5e2" stroke="#e6f5e2" fill-opacity="1" stroke-opacity="1"/><path d="M252,-133L435,29L406,-121Z" fill="#e3f4e0" stroke="#e3f4e0" fill-opacity="1" stroke-opacity="1"/><path d="M252,-133L406,-121L714,-125Z" fill="#def2db" stroke="#def2db" fill-opacity="1" stroke-opacity="1"/><path d="M406,-121L435,29L508,-29Z" fill="#def2db" stroke="#def2db" fill-opacity="1" stroke-opacity="1"/><path d="M406,-121L508,-29L714,-125Z" fill="#d8f0d5" stroke="#d8f0d5" fill-opacity="1" stroke-opacity="1"/><path d="M508,-29L435,29L468,42Z" fill="#dcf2d9" stroke="#dcf2d9" fill-opacity="1" stroke-opacity="1"/><path d="M508,-29L468,42L669,48Z" fill="#d6efd3" stroke="#d6efd3" fill-opacity="1" stroke-opacity="1"/><path d="M508,-29L669,48L714,-125Z" fill="#d2edd0" stroke="#d2edd0" fill-opacity="1" stroke-opacity="1"/><path d="M714,-125L669,48L779,31Z" fill="#cbeaca" stroke="#cbeaca" fill-opacity="1" stroke-opacity="1"/><path d="M714,-125L779,31L798,-111Z" fill="#c8e8c7" stroke="#c8e8c7" fill-opacity="1" stroke-opacity="1"/><path d="M714,-125L798,-111L1097,-104Z" fill="#c0e5c0" stroke="#c0e5c0" fill-opacity="1" stroke-opacity="1"/><path d="M714,-125L1097,-104L1567,-96Z" fill="#acd8b2" stroke="#acd8b2" fill-opacity="1" stroke-opacity="1"/><path d="M798,-111L779,31L983,-36Z" fill="#c2e5c2" stroke="#c2e5c2" fill-opacity="1" stroke-opacity="1"/><path d="M798,-111L983,-36L1097,-104Z" fill="#bae2bb" stroke="#bae2bb" fill-opacity="1" stroke-opacity="1"/><path d="M983,-36L779,31L981,60Z" fill="#bce3bc" stroke="#bce3bc" fill-opacity="1" stroke-opacity="1"/><path d="M983,-36L981,60L1094,90Z" fill="#b2deb5" stroke="#b2deb5" fill-opacity="1" stroke-opacity="1"/><path d="M983,-36L1094,90L1097,-104Z" fill="#b1dcb6" stroke="#b1dcb6" fill-opacity="1" stroke-opacity="1"/><path d="M1097,-104L1094,90L1244,98Z" fill="#a8d7af" stroke="#a8d7af" fill-opacity="1" stroke-opacity="1"/><path d="M1097,-104L1244,98L1273,-93Z" fill="#a5d3ae" stroke="#a5d3ae" fill-opacity="1" stroke-opacity="1"/><path d="M1097,-104L1273,-93L1567,-96Z" fill="#9ccda9" stroke="#9ccda9" fill-opacity="1" stroke-opacity="1"/><path d="M1273,-93L1244,98L1389,-70Z" fill="#9dcda9" stroke="#9dcda9" fill-opacity="1" stroke-opacity="1"/><path d="M1273,-93L1389,-70L1567,-96Z" fill="#94c7a4" stroke="#94c7a4" fill-opacity="1" stroke-opacity="1"/><path d="M1389,-70L1244,98L1480,47Z" fill="#96c9a4" stroke="#96c9a4" fill-opacity="1" stroke-opacity="1"/><path d="M1389,-70L1480,47L1567,-96Z" fill="#8ec3a0" stroke="#8ec3a0" fill-opacity="1" stroke-opacity="1"/><path d="M1567,-96L1480,47L1620,70Z" fill="#87be9c" stroke="#87be9c" fill-opacity="1" stroke-opacity="1"/><path d="M1567,-96L1620,70L1708,46Z" fill="#81ba98" stroke="#81ba98" fill-opacity="1" stroke-opacity="1"/><path d="M1567,-96L1708,46L1740,-84Z" fill="#80b796" stroke="#80b796" fill-opacity="1" stroke-opacity="1"/><path d="M1740,-84L1708,46L1875,17Z" fill="#80b191" stroke="#80b191" fill-opacity="1" stroke-opacity="1"/><path d="M1740,-84L1875,17L1893,-56Z" fill="#80ae8e" stroke="#80ae8e" fill-opacity="1" stroke-opacity="1"/><path d="M1740,-84L1893,-56L2071,-24Z" fill="#80aa8b" stroke="#80aa8b" fill-opacity="1" stroke-opacity="1"/><path d="M1893,-56L1875,17L2024,28Z" fill="#80a889" stroke="#80a889" fill-opacity="1" stroke-opacity="1"/><path d="M1893,-56L2024,28L2071,-24Z" fill="#80a486" stroke="#80a486" fill-opacity="1" stroke-opacity="1"/><path d="M2071,-24L2024,28L1980,274Z" fill="#7aa37d" stroke="#7aa37d" fill-opacity="1" stroke-opacity="1"/><path d="M2071,-24L1980,274L2029,377Z" fill="#72a273" stroke="#72a273" fill-opacity="1" stroke-opacity="1"/><path d="M2071,-24L2029,377L2015,1121Z" fill="#48984d" stroke="#48984d" fill-opacity="1" stroke-opacity="1"/><path d="M-123,107L-121,665L-80,567Z" fill="#cbf6ca" stroke="#cbf6ca" fill-opacity="1" stroke-opacity="1"/><path d="M-123,107L-80,567L-45,379Z" fill="#daf9d6" stroke="#daf9d6" fill-opacity="1" stroke-opacity="1"/><path d="M-123,107L-45,379L-33,257Z" fill="#eafde4" stroke="#eafde4" fill-opacity="1" stroke-opacity="1"/><path d="M-123,107L-33,257L32,120Z" fill="#eefde9" stroke="#eefde9" fill-opacity="1" stroke-opacity="1"/><path d="M32,120L-33,257L35,239Z" fill="#e8fce3" stroke="#e8fce3" fill-opacity="1" stroke-opacity="1"/><path d="M32,120L35,239L218,217Z" fill="#e5fadf" stroke="#e5fadf" fill-opacity="1" stroke-opacity="1"/><path d="M32,120L218,217L230,133Z" fill="#e4f8de" stroke="#e4f8de" fill-opacity="1" stroke-opacity="1"/><path d="M230,133L218,217L354,245Z" fill="#dbf6d5" stroke="#dbf6d5" fill-opacity="1" stroke-opacity="1"/><path d="M230,133L354,245L435,29Z" fill="#dbf5d6" stroke="#dbf5d6" fill-opacity="1" stroke-opacity="1"/><path d="M435,29L354,245L468,42Z" fill="#d9f3d4" stroke="#d9f3d4" fill-opacity="1" stroke-opacity="1"/><path d="M468,42L354,245L512,262Z" fill="#d3f2cc" stroke="#d3f2cc" fill-opacity="1" stroke-opacity="1"/><path d="M468,42L512,262L669,48Z" fill="#d0efcb" stroke="#d0efcb" fill-opacity="1" stroke-opacity="1"/><path d="M669,48L512,262L704,189Z" fill="#c7edc2" stroke="#c7edc2" fill-opacity="1" stroke-opacity="1"/><path d="M669,48L704,189L779,31Z" fill="#c5eac3" stroke="#c5eac3" fill-opacity="1" stroke-opacity="1"/><path d="M779,31L704,189L781,213Z" fill="#bfe9bc" stroke="#bfe9bc" fill-opacity="1" stroke-opacity="1"/><path d="M779,31L781,213L919,235Z" fill="#b9e6b6" stroke="#b9e6b6" fill-opacity="1" stroke-opacity="1"/><path d="M779,31L919,235L981,60Z" fill="#b8e4b6" stroke="#b8e4b6" fill-opacity="1" stroke-opacity="1"/><path d="M981,60L919,235L1094,90Z" fill="#aedfae" stroke="#aedfae" fill-opacity="1" stroke-opacity="1"/><path d="M1094,90L919,235L1140,217Z" fill="#a6dca7" stroke="#a6dca7" fill-opacity="1" stroke-opacity="1"/><path d="M1094,90L1140,217L1244,98Z" fill="#a0d6a6" stroke="#a0d6a6" fill-opacity="1" stroke-opacity="1"/><path d="M1244,98L1140,217L1317,225Z" fill="#97d29e" stroke="#97d29e" fill-opacity="1" stroke-opacity="1"/><path d="M1244,98L1317,225L1480,47Z" fill="#91cb9c" stroke="#91cb9c" fill-opacity="1" stroke-opacity="1"/><path d="M1480,47L1317,225L1419,229Z" fill="#89c796" stroke="#89c796" fill-opacity="1" stroke-opacity="1"/><path d="M1480,47L1419,229L1538,282Z" fill="#82c391" stroke="#82c391" fill-opacity="1" stroke-opacity="1"/><path d="M1480,47L1538,282L1620,70Z" fill="#80bf92" stroke="#80bf92" fill-opacity="1" stroke-opacity="1"/><path d="M1620,70L1538,282L1711,188Z" fill="#76ba8a" stroke="#76ba8a" fill-opacity="1" stroke-opacity="1"/><path d="M1620,70L1711,188L1708,46Z" fill="#79b78e" stroke="#79b78e" fill-opacity="1" stroke-opacity="1"/><path d="M1708,46L1711,188L1843,187Z" fill="#77b387" stroke="#77b387" fill-opacity="1" stroke-opacity="1"/><path d="M1708,46L1843,187L1875,17Z" fill="#7aaf88" stroke="#7aaf88" fill-opacity="1" stroke-opacity="1"/><path d="M1875,17L1843,187L2024,28Z" fill="#7ba984" stroke="#7ba984" fill-opacity="1" stroke-opacity="1"/><path d="M2024,28L1843,187L1980,274Z" fill="#75a77b" stroke="#75a77b" fill-opacity="1" stroke-opacity="1"/><path d="M-33,257L-45,379L35,239Z" fill="#e0fbdb" stroke="#e0fbdb" fill-opacity="1" stroke-opacity="1"/><path d="M35,239L-45,379L115,346Z" fill="#d8f8d3" stroke="#d8f8d3" fill-opacity="1" stroke-opacity="1"/><path d="M35,239L115,346L218,217Z" fill="#ddf9d6" stroke="#ddf9d6" fill-opacity="1" stroke-opacity="1"/><path d="M218,217L115,346L229,402Z" fill="#d0f5cb" stroke="#d0f5cb" fill-opacity="1" stroke-opacity="1"/><path d="M218,217L229,402L354,245Z" fill="#d2f5cb" stroke="#d2f5cb" fill-opacity="1" stroke-opacity="1"/><path d="M354,245L229,402L366,399Z" fill="#c5f1c0" stroke="#c5f1c0" fill-opacity="1" stroke-opacity="1"/><path d="M354,245L366,399L499,388Z" fill="#c1efbb" stroke="#c1efbb" fill-opacity="1" stroke-opacity="1"/><path d="M354,245L499,388L512,262Z" fill="#c6f0bf" stroke="#c6f0bf" fill-opacity="1" stroke-opacity="1"/><path d="M512,262L499,388L643,416Z" fill="#b6ebb1" stroke="#b6ebb1" fill-opacity="1" stroke-opacity="1"/><path d="M512,262L643,416L704,189Z" fill="#bcecb6" stroke="#bcecb6" fill-opacity="1" stroke-opacity="1"/><path d="M704,189L643,416L781,213Z" fill="#b8e9b3" stroke="#b8e9b3" fill-opacity="1" stroke-opacity="1"/><path d="M781,213L643,416L879,377Z" fill="#a9e5a6" stroke="#a9e5a6" fill-opacity="1" stroke-opacity="1"/><path d="M781,213L879,377L919,235Z" fill="#ade4a9" stroke="#ade4a9" fill-opacity="1" stroke-opacity="1"/><path d="M919,235L879,377L971,347Z" fill="#a1e09f" stroke="#a1e09f" fill-opacity="1" stroke-opacity="1"/><path d="M919,235L971,347L1140,217Z" fill="#a3dea1" stroke="#a3dea1" fill-opacity="1" stroke-opacity="1"/><path d="M1140,217L971,347L1140,322Z" fill="#98d899" stroke="#98d899" fill-opacity="1" stroke-opacity="1"/><path d="M1140,217L1140,322L1317,225Z" fill="#95d499" stroke="#95d499" fill-opacity="1" stroke-opacity="1"/><path d="M1317,225L1140,322L1304,361Z" fill="#88ce90" stroke="#88ce90" fill-opacity="1" stroke-opacity="1"/><path d="M1317,225L1304,361L1419,229Z" fill="#86ca90" stroke="#86ca90" fill-opacity="1" stroke-opacity="1"/><path d="M1419,229L1304,361L1387,432Z" fill="#78c684" stroke="#78c684" fill-opacity="1" stroke-opacity="1"/><path d="M1419,229L1387,432L1525,347Z" fill="#72c281" stroke="#72c281" fill-opacity="1" stroke-opacity="1"/><path d="M1419,229L1525,347L1538,282Z" fill="#77c185" stroke="#77c185" fill-opacity="1" stroke-opacity="1"/><path d="M1538,282L1525,347L1754,402Z" fill="#64b778" stroke="#64b778" fill-opacity="1" stroke-opacity="1"/><path d="M1538,282L1754,402L1711,188Z" fill="#69b67c" stroke="#69b67c" fill-opacity="1" stroke-opacity="1"/><path d="M1711,188L1754,402L1843,187Z" fill="#6eb17b" stroke="#6eb17b" fill-opacity="1" stroke-opacity="1"/><path d="M1843,187L1754,402L1832,402Z" fill="#62ac6f" stroke="#62ac6f" fill-opacity="1" stroke-opacity="1"/><path d="M1843,187L1832,402L1980,274Z" fill="#69a972" stroke="#69a972" fill-opacity="1" stroke-opacity="1"/><path d="M1980,274L1832,402L2029,377Z" fill="#5fa365" stroke="#5fa365" fill-opacity="1" stroke-opacity="1"/><path d="M-45,379L-80,567L111,546Z" fill="#bdf2bd" stroke="#bdf2bd" fill-opacity="1" stroke-opacity="1"/><path d="M-45,379L111,546L115,346Z" fill="#c6f3c3" stroke="#c6f3c3" fill-opacity="1" stroke-opacity="1"/><path d="M115,346L111,546L229,402Z" fill="#c0f1bd" stroke="#c0f1bd" fill-opacity="1" stroke-opacity="1"/><path d="M229,402L111,546L226,570Z" fill="#b2edb1" stroke="#b2edb1" fill-opacity="1" stroke-opacity="1"/><path d="M229,402L226,570L387,545Z" fill="#adebab" stroke="#adebab" fill-opacity="1" stroke-opacity="1"/><path d="M229,402L387,545L366,399Z" fill="#b4edb1" stroke="#b4edb1" fill-opacity="1" stroke-opacity="1"/><path d="M366,399L387,545L499,388Z" fill="#b0ebac" stroke="#b0ebac" fill-opacity="1" stroke-opacity="1"/><path d="M499,388L387,545L550,477Z" fill="#a8e9a5" stroke="#a8e9a5" fill-opacity="1" stroke-opacity="1"/><path d="M499,388L550,477L643,416Z" fill="#a9e7a6" stroke="#a9e7a6" fill-opacity="1" stroke-opacity="1"/><path d="M643,416L550,477L643,585Z" fill="#9be39a" stroke="#9be39a" fill-opacity="1" stroke-opacity="1"/><path d="M643,416L643,585L842,567Z" fill="#8edd90" stroke="#8edd90" fill-opacity="1" stroke-opacity="1"/><path d="M643,416L842,567L879,377Z" fill="#94df94" stroke="#94df94" fill-opacity="1" stroke-opacity="1"/><path d="M879,377L842,567L984,573Z" fill="#84d985" stroke="#84d985" fill-opacity="1" stroke-opacity="1"/><path d="M879,377L984,573L1066,497Z" fill="#82d784" stroke="#82d784" fill-opacity="1" stroke-opacity="1"/><path d="M879,377L1066,497L971,347Z" fill="#8fdb8f" stroke="#8fdb8f" fill-opacity="1" stroke-opacity="1"/><path d="M971,347L1066,497L1140,322Z" fill="#8ad68d" stroke="#8ad68d" fill-opacity="1" stroke-opacity="1"/><path d="M1140,322L1066,497L1304,361Z" fill="#80cf87" stroke="#80cf87" fill-opacity="1" stroke-opacity="1"/><path d="M1304,361L1066,497L1297,569Z" fill="#6ec978" stroke="#6ec978" fill-opacity="1" stroke-opacity="1"/><path d="M1304,361L1297,569L1387,432Z" fill="#69c376" stroke="#69c376" fill-opacity="1" stroke-opacity="1"/><path d="M1387,432L1297,569L1368,577Z" fill="#5abd6b" stroke="#5abd6b" fill-opacity="1" stroke-opacity="1"/><path d="M1387,432L1368,577L1587,533Z" fill="#55b968" stroke="#55b968" fill-opacity="1" stroke-opacity="1"/><path d="M1387,432L1587,533L1525,347Z" fill="#5dba70" stroke="#5dba70" fill-opacity="1" stroke-opacity="1"/><path d="M1525,347L1587,533L1754,402Z" fill="#54b36b" stroke="#54b36b" fill-opacity="1" stroke-opacity="1"/><path d="M1754,402L1587,533L1675,568Z" fill="#46ad5e" stroke="#46ad5e" fill-opacity="1" stroke-opacity="1"/><path d="M1754,402L1675,568L1820,475Z" fill="#49a95d" stroke="#49a95d" fill-opacity="1" stroke-opacity="1"/><path d="M1754,402L1820,475L1832,402Z" fill="#52a962" stroke="#52a962" fill-opacity="1" stroke-opacity="1"/><path d="M1832,402L1820,475L2008,487Z" fill="#4ea259" stroke="#4ea259" fill-opacity="1" stroke-opacity="1"/><path d="M1832,402L2008,487L2029,377Z" fill="#53a05b" stroke="#53a05b" fill-opacity="1" stroke-opacity="1"/><path d="M2029,377L2008,487L1998,617Z" fill="#47994e" stroke="#47994e" fill-opacity="1" stroke-opacity="1"/><path d="M2029,377L1998,617L2009,793Z" fill="#348d42" stroke="#348d42" fill-opacity="1" stroke-opacity="1"/><path d="M2029,377L2009,793L2015,1121Z" fill="#14752e" stroke="#14752e" fill-opacity="1" stroke-opacity="1"/><path d="M-80,567L-121,665L39,770Z" fill="#a0dcab" stroke="#a0dcab" fill-opacity="1" stroke-opacity="1"/><path d="M-80,567L39,770L132,711Z" fill="#98d9a5" stroke="#98d9a5" fill-opacity="1" stroke-opacity="1"/><path d="M-80,567L132,711L111,546Z" fill="#a5e2ac" stroke="#a5e2ac" fill-opacity="1" stroke-opacity="1"/><path d="M111,546L132,711L226,570Z" fill="#9fe0a6" stroke="#9fe0a6" fill-opacity="1" stroke-opacity="1"/><path d="M226,570L132,711L166,734Z" fill="#92d79e" stroke="#92d79e" fill-opacity="1" stroke-opacity="1"/><path d="M226,570L166,734L316,677Z" fill="#91d79c" stroke="#91d79c" fill-opacity="1" stroke-opacity="1"/><path d="M226,570L316,677L387,545Z" fill="#9ade9f" stroke="#9ade9f" fill-opacity="1" stroke-opacity="1"/><path d="M387,545L316,677L564,694Z" fill="#8cd694" stroke="#8cd694" fill-opacity="1" stroke-opacity="1"/><path d="M387,545L564,694L550,477Z" fill="#94de97" stroke="#94de97" fill-opacity="1" stroke-opacity="1"/><path d="M550,477L564,694L643,585Z" fill="#8bd990" stroke="#8bd990" fill-opacity="1" stroke-opacity="1"/><path d="M643,585L564,694L635,733Z" fill="#78cc84" stroke="#78cc84" fill-opacity="1" stroke-opacity="1"/><path d="M643,585L635,733L834,677Z" fill="#73ca80" stroke="#73ca80" fill-opacity="1" stroke-opacity="1"/><path d="M643,585L834,677L842,567Z" fill="#79cf82" stroke="#79cf82" fill-opacity="1" stroke-opacity="1"/><path d="M842,567L834,677L917,627Z" fill="#6fca7a" stroke="#6fca7a" fill-opacity="1" stroke-opacity="1"/><path d="M842,567L917,627L984,573Z" fill="#73cd7b" stroke="#73cd7b" fill-opacity="1" stroke-opacity="1"/><path d="M984,573L917,627L1130,781Z" fill="#5dbf6d" stroke="#5dbf6d" fill-opacity="1" stroke-opacity="1"/><path d="M984,573L1130,781L1158,732Z" fill="#50b665" stroke="#50b665" fill-opacity="1" stroke-opacity="1"/><path d="M984,573L1158,732L1066,497Z" fill="#64c471" stroke="#64c471" fill-opacity="1" stroke-opacity="1"/><path d="M1066,497L1158,732L1297,569Z" fill="#5bbe6c" stroke="#5bbe6c" fill-opacity="1" stroke-opacity="1"/><path d="M1297,569L1158,732L1247,724Z" fill="#48b060" stroke="#48b060" fill-opacity="1" stroke-opacity="1"/><path d="M1297,569L1247,724L1368,577Z" fill="#4cb362" stroke="#4cb362" fill-opacity="1" stroke-opacity="1"/><path d="M1368,577L1247,724L1421,697Z" fill="#40ab5b" stroke="#40ab5b" fill-opacity="1" stroke-opacity="1"/><path d="M1368,577L1421,697L1587,533Z" fill="#43ad5d" stroke="#43ad5d" fill-opacity="1" stroke-opacity="1"/><path d="M1587,533L1421,697L1530,716Z" fill="#35a355" stroke="#35a355" fill-opacity="1" stroke-opacity="1"/><path d="M1587,533L1530,716L1672,690Z" fill="#2f9e51" stroke="#2f9e51" fill-opacity="1" stroke-opacity="1"/><path d="M1587,533L1672,690L1675,568Z" fill="#34a254" stroke="#34a254" fill-opacity="1" stroke-opacity="1"/><path d="M1675,568L1672,690L1865,726Z" fill="#279448" stroke="#279448" fill-opacity="1" stroke-opacity="1"/><path d="M1675,568L1865,726L1820,475Z" fill="#359b4e" stroke="#359b4e" fill-opacity="1" stroke-opacity="1"/><path d="M1820,475L1865,726L1998,617Z" fill="#329246" stroke="#329246" fill-opacity="1" stroke-opacity="1"/><path d="M1820,475L1998,617L2008,487Z" fill="#419a4d" stroke="#419a4d" fill-opacity="1" stroke-opacity="1"/><path d="M-121,665L-25,1160L-49,1006Z" fill="#7ab88b" stroke="#7ab88b" fill-opacity="1" stroke-opacity="1"/><path d="M-121,665L-49,1006L-51,852Z" fill="#7fc698" stroke="#7fc698" fill-opacity="1" stroke-opacity="1"/><path d="M-121,665L-51,852L39,770Z" fill="#8dd0a0" stroke="#8dd0a0" fill-opacity="1" stroke-opacity="1"/><path d="M132,711L39,770L166,734Z" fill="#89cf99" stroke="#89cf99" fill-opacity="1" stroke-opacity="1"/><path d="M166,734L39,770L184,855Z" fill="#7fc993" stroke="#7fc993" fill-opacity="1" stroke-opacity="1"/><path d="M166,734L184,855L316,677Z" fill="#80cb92" stroke="#80cb92" fill-opacity="1" stroke-opacity="1"/><path d="M316,677L184,855L403,852Z" fill="#74c488" stroke="#74c488" fill-opacity="1" stroke-opacity="1"/><path d="M316,677L403,852L496,838Z" fill="#70c383" stroke="#70c383" fill-opacity="1" stroke-opacity="1"/><path d="M316,677L496,838L564,694Z" fill="#77c986" stroke="#77c986" fill-opacity="1" stroke-opacity="1"/><path d="M564,694L496,838L635,733Z" fill="#6cc37e" stroke="#6cc37e" fill-opacity="1" stroke-opacity="1"/><path d="M635,733L496,838L713,818Z" fill="#60bc76" stroke="#60bc76" fill-opacity="1" stroke-opacity="1"/><path d="M635,733L713,818L834,677Z" fill="#63bf75" stroke="#63bf75" fill-opacity="1" stroke-opacity="1"/><path d="M834,677L713,818L842,794Z" fill="#5aba6e" stroke="#5aba6e" fill-opacity="1" stroke-opacity="1"/><path d="M834,677L842,794L917,627Z" fill="#61c071" stroke="#61c071" fill-opacity="1" stroke-opacity="1"/><path d="M917,627L842,794L979,850Z" fill="#52b767" stroke="#52b767" fill-opacity="1" stroke-opacity="1"/><path d="M917,627L979,850L1130,781Z" fill="#4cb362" stroke="#4cb362" fill-opacity="1" stroke-opacity="1"/><path d="M1158,732L1130,781L1243,805Z" fill="#39a657" stroke="#39a657" fill-opacity="1" stroke-opacity="1"/><path d="M1158,732L1243,805L1247,724Z" fill="#3aa758" stroke="#3aa758" fill-opacity="1" stroke-opacity="1"/><path d="M1247,724L1243,805L1421,697Z" fill="#35a355" stroke="#35a355" fill-opacity="1" stroke-opacity="1"/><path d="M1421,697L1243,805L1470,831Z" fill="#279a4c" stroke="#279a4c" fill-opacity="1" stroke-opacity="1"/><path d="M1421,697L1470,831L1530,716Z" fill="#25984b" stroke="#25984b" fill-opacity="1" stroke-opacity="1"/><path d="M1530,716L1470,831L1589,835Z" fill="#188e43" stroke="#188e43" fill-opacity="1" stroke-opacity="1"/><path d="M1530,716L1589,835L1672,690Z" fill="#1b9145" stroke="#1b9145" fill-opacity="1" stroke-opacity="1"/><path d="M1672,690L1589,835L1767,796Z" fill="#12893e" stroke="#12893e" fill-opacity="1" stroke-opacity="1"/><path d="M1672,690L1767,796L1865,726Z" fill="#19883e" stroke="#19883e" fill-opacity="1" stroke-opacity="1"/><path d="M1865,726L1767,796L1816,841Z" fill="#0f7e35" stroke="#0f7e35" fill-opacity="1" stroke-opacity="1"/><path d="M1865,726L1816,841L2009,793Z" fill="#0f7a31" stroke="#0f7a31" fill-opacity="1" stroke-opacity="1"/><path d="M1865,726L2009,793L1998,617Z" fill="#1d8037" stroke="#1d8037" fill-opacity="1" stroke-opacity="1"/><path d="M-51,852L-49,1006L58,960Z" fill="#77b78a" stroke="#77b78a" fill-opacity="1" stroke-opacity="1"/><path d="M-51,852L58,960L39,770Z" fill="#76c191" stroke="#76c191" fill-opacity="1" stroke-opacity="1"/><path d="M39,770L58,960L184,855Z" fill="#72bf8c" stroke="#72bf8c" fill-opacity="1" stroke-opacity="1"/><path d="M184,855L58,960L219,940Z" fill="#6fb782" stroke="#6fb782" fill-opacity="1" stroke-opacity="1"/><path d="M184,855L219,940L403,852Z" fill="#68b980" stroke="#68b980" fill-opacity="1" stroke-opacity="1"/><path d="M403,852L219,940L400,978Z" fill="#65b277" stroke="#65b277" fill-opacity="1" stroke-opacity="1"/><path d="M403,852L400,978L476,948Z" fill="#60b072" stroke="#60b072" fill-opacity="1" stroke-opacity="1"/><path d="M403,852L476,948L496,838Z" fill="#5eb576" stroke="#5eb576" fill-opacity="1" stroke-opacity="1"/><path d="M496,838L476,948L699,1013Z" fill="#58ab69" stroke="#58ab69" fill-opacity="1" stroke-opacity="1"/><path d="M496,838L699,1013L713,818Z" fill="#52ae69" stroke="#52ae69" fill-opacity="1" stroke-opacity="1"/><path d="M713,818L699,1013L861,916Z" fill="#49a65f" stroke="#49a65f" fill-opacity="1" stroke-opacity="1"/><path d="M713,818L861,916L842,794Z" fill="#4aaf64" stroke="#4aaf64" fill-opacity="1" stroke-opacity="1"/><path d="M842,794L861,916L979,850Z" fill="#41aa5d" stroke="#41aa5d" fill-opacity="1" stroke-opacity="1"/><path d="M979,850L861,916L966,947Z" fill="#3ca255" stroke="#3ca255" fill-opacity="1" stroke-opacity="1"/><path d="M979,850L966,947L1081,1034Z" fill="#36994c" stroke="#36994c" fill-opacity="1" stroke-opacity="1"/><path d="M979,850L1081,1034L1130,781Z" fill="#329e4f" stroke="#329e4f" fill-opacity="1" stroke-opacity="1"/><path d="M1130,781L1081,1034L1243,805Z" fill="#2a9a4d" stroke="#2a9a4d" fill-opacity="1" stroke-opacity="1"/><path d="M1243,805L1081,1034L1310,969Z" fill="#258e42" stroke="#258e42" fill-opacity="1" stroke-opacity="1"/><path d="M1243,805L1310,969L1470,831Z" fill="#1a9044" stroke="#1a9044" fill-opacity="1" stroke-opacity="1"/><path d="M1470,831L1310,969L1438,942Z" fill="#15863b" stroke="#15863b" fill-opacity="1" stroke-opacity="1"/><path d="M1470,831L1438,942L1539,967Z" fill="#0e8138" stroke="#0e8138" fill-opacity="1" stroke-opacity="1"/><path d="M1470,831L1539,967L1589,835Z" fill="#0a8339" stroke="#0a8339" fill-opacity="1" stroke-opacity="1"/><path d="M1589,835L1539,967L1665,1016Z" fill="#04772f" stroke="#04772f" fill-opacity="1" stroke-opacity="1"/><path d="M1589,835L1665,1016L1767,796Z" fill="#007a31" stroke="#007a31" fill-opacity="1" stroke-opacity="1"/><path d="M1767,796L1665,1016L1816,841Z" fill="#00752d" stroke="#00752d" fill-opacity="1" stroke-opacity="1"/><path d="M1816,841L1665,1016L1866,1034Z" fill="#006822" stroke="#006822" fill-opacity="1" stroke-opacity="1"/><path d="M1816,841L1866,1034L1980,945Z" fill="#00661f" stroke="#00661f" fill-opacity="1" stroke-opacity="1"/><path d="M1816,841L1980,945L2009,793Z" fill="#016d26" stroke="#016d26" fill-opacity="1" stroke-opacity="1"/><path d="M2009,793L1980,945L2015,1121Z" fill="#005d18" stroke="#005d18" fill-opacity="1" stroke-opacity="1"/><path d="M-49,1006L-25,1160L58,960Z" fill="#77a97d" stroke="#77a97d" fill-opacity="1" stroke-opacity="1"/><path d="M58,960L-25,1160L114,1183Z" fill="#74a073" stroke="#74a073" fill-opacity="1" stroke-opacity="1"/><path d="M58,960L114,1183L190,1084Z" fill="#70a272" stroke="#70a272" fill-opacity="1" stroke-opacity="1"/><path d="M58,960L190,1084L219,940Z" fill="#6eac79" stroke="#6eac79" fill-opacity="1" stroke-opacity="1"/><path d="M219,940L190,1084L348,1072Z" fill="#69a570" stroke="#69a570" fill-opacity="1" stroke-opacity="1"/><path d="M219,940L348,1072L400,978Z" fill="#66a970" stroke="#66a970" fill-opacity="1" stroke-opacity="1"/><path d="M400,978L348,1072L519,1147Z" fill="#609d62" stroke="#609d62" fill-opacity="1" stroke-opacity="1"/><path d="M400,978L519,1147L476,948Z" fill="#5ea265" stroke="#5ea265" fill-opacity="1" stroke-opacity="1"/><path d="M476,948L519,1147L699,1013Z" fill="#579d5d" stroke="#579d5d" fill-opacity="1" stroke-opacity="1"/><path d="M699,1013L519,1147L635,1172Z" fill="#539151" stroke="#539151" fill-opacity="1" stroke-opacity="1"/><path d="M699,1013L635,1172L785,1080Z" fill="#4d914e" stroke="#4d914e" fill-opacity="1" stroke-opacity="1"/><path d="M699,1013L785,1080L861,916Z" fill="#479a53" stroke="#479a53" fill-opacity="1" stroke-opacity="1"/><path d="M861,916L785,1080L966,947Z" fill="#419a50" stroke="#419a50" fill-opacity="1" stroke-opacity="1"/><path d="M966,947L785,1080L987,1159Z" fill="#3e8e44" stroke="#3e8e44" fill-opacity="1" stroke-opacity="1"/><path d="M966,947L987,1159L1081,1034Z" fill="#368b40" stroke="#368b40" fill-opacity="1" stroke-opacity="1"/><path d="M1081,1034L987,1159L1092,1125Z" fill="#328137" stroke="#328137" fill-opacity="1" stroke-opacity="1"/><path d="M1081,1034L1092,1125L1232,1148Z" fill="#2b7c33" stroke="#2b7c33" fill-opacity="1" stroke-opacity="1"/><path d="M1081,1034L1232,1148L1310,969Z" fill="#257f36" stroke="#257f36" fill-opacity="1" stroke-opacity="1"/><path d="M1310,969L1232,1148L1402,1177Z" fill="#1c722a" stroke="#1c722a" fill-opacity="1" stroke-opacity="1"/><path d="M1310,969L1402,1177L1438,942Z" fill="#17782f" stroke="#17782f" fill-opacity="1" stroke-opacity="1"/><path d="M1438,942L1402,1177L1539,967Z" fill="#10732b" stroke="#10732b" fill-opacity="1" stroke-opacity="1"/><path d="M1539,967L1402,1177L1613,1147Z" fill="#0b6720" stroke="#0b6720" fill-opacity="1" stroke-opacity="1"/><path d="M1539,967L1613,1147L1665,1016Z" fill="#046822" stroke="#046822" fill-opacity="1" stroke-opacity="1"/><path d="M1665,1016L1613,1147L1683,1152Z" fill="#005d18" stroke="#005d18" fill-opacity="1" stroke-opacity="1"/><path d="M1665,1016L1683,1152L1847,1129Z" fill="#005915" stroke="#005915" fill-opacity="1" stroke-opacity="1"/><path d="M1665,1016L1847,1129L1866,1034Z" fill="#005b16" stroke="#005b16" fill-opacity="1" stroke-opacity="1"/><path d="M1866,1034L1847,1129L2015,1121Z" fill="#004f0c" stroke="#004f0c" fill-opacity="1" stroke-opacity="1"/><path d="M1866,1034L2015,1121L1980,945Z" fill="#005512" stroke="#005512" fill-opacity="1" stroke-opacity="1"/><path d="M114,1183L1402,1177L635,1172Z" fill="#4c854b" stroke="#4c854b" fill-opacity="1" stroke-opacity="1"/><path d="M114,1183L635,1172L519,1147Z" fill="#608f5d" stroke="#608f5d" fill-opacity="1" stroke-opacity="1"/><path d="M114,1183L519,1147L348,1072Z" fill="#659662" stroke="#659662" fill-opacity="1" stroke-opacity="1"/><path d="M114,1183L348,1072L190,1084Z" fill="#6b9b69" stroke="#6b9b69" fill-opacity="1" stroke-opacity="1"/><path d="M635,1172L1402,1177L987,1159Z" fill="#367b39" stroke="#367b39" fill-opacity="1" stroke-opacity="1"/><path d="M635,1172L987,1159L785,1080Z" fill="#468845" stroke="#468845" fill-opacity="1" stroke-opacity="1"/><path d="M987,1159L1402,1177L1232,1148Z" fill="#25702f" stroke="#25702f" fill-opacity="1" stroke-opacity="1"/><path d="M987,1159L1232,1148L1092,1125Z" fill="#2e7934" stroke="#2e7934" fill-opacity="1" stroke-opacity="1"/><path d="M1402,1177L1683,1152L1613,1147Z" fill="#075b1c" stroke="#075b1c" fill-opacity="1" stroke-opacity="1"/><path d="M1683,1152L2015,1121L1847,1129Z" fill="#004e0e" stroke="#004e0e" fill-opacity="1" stroke-opacity="1"/></g></svg>